<svg width="42" height="42" viewBox="0 0 42 42" fill="none" xmlns="http://www.w3.org/2000/svg">
<path fill-rule="evenodd" clip-rule="evenodd" d="M32.9 37.1C31.7 35.8999 31.7 34.025 32.9 32.9C34.1 31.7 35.9751 31.7 37.1 32.9C38.3 34.1 38.3 35.975 37.1 37.1C36.5001 37.7 35.75 38 35 38C34.25 38 33.5 37.7 32.9 37.1ZM33.95 36.1249C34.55 36.725 35.45 36.725 36.05 36.1249C36.6501 35.525 36.6501 34.625 36.0501 34.025C35.7501 33.725 35.3751 33.575 35.0001 33.575C34.6251 33.575 34.25 33.725 33.95 34.025C33.35 34.6249 33.3501 35.5249 33.95 36.1249Z" fill="white"/>
<path fill-rule="evenodd" clip-rule="evenodd" d="M28.922 21L41.5273 33.5999C42.1575 34.2299 42.1575 35.2799 41.5274 35.91L35.925 41.51C35.6449 41.86 35.2247 42 34.8046 42C34.3844 42 33.9642 41.8601 33.614 41.51L23.8801 31.7802L23.88 31.7801L23.8799 31.78L21.9192 29.8201L21.9191 29.82L21.919 29.8199L21.0087 28.91L9.59395 40.3199C9.52395 40.4599 9.31386 40.5299 9.10377 40.5299C9.03549 40.5299 8.97518 40.5217 8.91929 40.507L0.840351 41.9999H0.700265C0.490177 41.9999 0.350091 41.9299 0.210088 41.7899C0.0700019 41.6499 0 41.4399 0 41.1599L1.47061 32.7599C1.53101 32.5184 1.64402 32.3295 1.85361 32.2371L13.0954 21L10.0142 17.92L10.0141 17.9199L6.09254 14L2.10088 10.01L0.630263 8.54001C-0.210088 7.70001 -0.210088 6.37004 0.630263 5.60002L5.60228 0.629999C6.37263 -0.140027 7.77316 -0.140027 8.54351 0.629999L21.0088 13.0899L25.9809 8.11993L28.9221 5.17993L33.1939 0.909971C33.754 0.350027 34.5244 0 35.3647 0C36.2051 0 36.9754 0.350027 37.5356 0.909971L41.1071 4.47996C42.2976 5.66999 42.2976 7.62996 41.1071 8.81998L36.8354 13.0899L36.8354 13.0899L33.8942 16.0299L33.8941 16.0299L28.922 21ZM6.65346 36.3307L9.10377 38.78L32.3535 15.54L29.9368 13.1242L6.65346 36.3307ZM34.1742 1.89C34.8045 1.26 35.9249 1.26 36.5552 1.89L40.1267 5.45999C40.7569 6.08999 40.7569 7.20996 40.1267 7.83996L36.3451 11.62L30.3926 5.66999L34.1742 1.89ZM32.3885 9.62504L29.4123 6.65001L27.4515 8.60998L33.4039 14.5599L35.3647 12.6L32.3885 9.62504ZM13.4806 19.425L14.9862 17.9199C15.2663 17.64 15.2663 17.22 14.9862 16.9399C14.7061 16.6599 14.286 16.6599 14.0058 16.9399L12.5001 18.4449L11.4847 17.43L13.9358 14.9799C14.2159 14.7 14.2159 14.28 13.9358 13.9999C13.6557 13.7199 13.2355 13.7199 12.9554 13.9999L10.5043 16.4499L9.52387 15.4699L10.9945 13.9999C11.2746 13.7199 11.2746 13.2999 10.9945 13.0199C10.7144 12.7398 10.2942 12.7399 10.014 13.0199L8.54343 14.4899L7.56299 13.5099L10.014 11.0598C10.2941 10.7799 10.2941 10.3599 10.014 10.0798C9.73395 9.79976 9.31378 9.79984 9.03361 10.0798L6.58272 12.53L5.53228 11.48L7.0029 10.01C7.28299 9.73004 7.28299 9.31004 7.0029 9.02998C6.72281 8.74993 6.30263 8.75001 6.02246 9.02998L4.55185 10.5L3.57141 9.51995L6.02246 7.06993C6.30255 6.78996 6.30255 6.36996 6.02246 6.08991C5.74237 5.80985 5.32219 5.80993 5.04202 6.08991L2.59105 8.54001L1.61062 7.55999C1.33053 7.28001 1.33053 6.86001 1.61062 6.57996L6.58272 1.61002C6.72281 1.47 6.86281 1.40002 7.0729 1.40002C7.21298 1.40002 7.42307 1.47 7.56308 1.61002L20.0283 14.07L14.0759 20.0199L13.4806 19.425ZM28.9214 12.1093L26.4711 9.65998L3.22132 32.9L5.63806 35.3157L28.9214 12.1093ZM2.66106 34.2999L4.95856 36.5964C4.99352 36.6764 5.04449 36.7523 5.11211 36.8199L7.6435 39.3501L1.6107 40.3898L2.66106 34.2999ZM34.9446 40.5299L40.5469 34.9299C40.6169 34.8599 40.6169 34.6499 40.5468 34.58L27.9416 21.98L21.9891 27.9299L22.4093 28.3499L24.8603 25.8998C25.1404 25.6199 25.5606 25.6199 25.8407 25.8998C26.1208 26.1799 26.1208 26.5999 25.8407 26.8799L23.3897 29.3299L24.3701 30.3099L25.8407 28.8399C26.1209 28.5599 26.5411 28.5599 26.8211 28.8399C27.1012 29.12 27.1012 29.54 26.8211 29.8199L25.3505 31.2899L26.3659 32.3049L28.8519 29.8199C29.1321 29.54 29.5523 29.54 29.8324 29.8199C30.1125 30.1 30.1125 30.52 29.8324 30.8L27.3464 33.2849L34.5944 40.5299C34.6645 40.5999 34.8746 40.5999 34.9446 40.5299Z" fill="white"/>
</svg>
