<svg width="30" height="43" viewBox="0 0 30 43" fill="none" xmlns="http://www.w3.org/2000/svg">
<path fill-rule="evenodd" clip-rule="evenodd" d="M0 15.1172C0 6.78157 6.729 0 15 0C23.271 0 30 6.78157 30 15.1172C30 17.85 29.2684 20.5281 27.8843 22.8622L16.2807 42.3876C16.0567 42.7645 15.6541 42.9966 15.2182 43H15.2083C14.7761 43 14.3743 42.7749 14.1462 42.4045L2.23908 23.0665C0.774083 20.682 0 17.9335 0 15.1172ZM15.1893 39.3203L25.7388 21.5687C26.8908 19.6261 27.5083 17.3949 27.5083 15.1172C27.5083 8.17084 21.8925 2.50273 15 2.50273C8.1075 2.50273 2.48333 8.17084 2.48333 15.1172C2.48333 17.4646 3.1445 19.7543 4.36392 21.739L15.1893 39.3203Z" fill="white"/>
<path fill-rule="evenodd" clip-rule="evenodd" d="M8 14.5C8 10.3645 11.3645 7 15.5 7C19.6355 7 23 10.3645 23 14.5C23 18.5639 19.7419 22 15.5 22C11.3098 22 8 18.6091 8 14.5ZM10.4833 14.5C10.4833 17.2639 12.7286 19.5167 15.5 19.5167C18.3153 19.5167 20.5083 17.2236 20.5083 14.5C20.5083 11.743 18.257 9.48333 15.5 9.48333C12.743 9.48333 10.4833 11.743 10.4833 14.5Z" fill="white"/>
</svg>
