<svg width="42" height="42" viewBox="0 0 42 42" fill="none" xmlns="http://www.w3.org/2000/svg">
<path fill-rule="evenodd" clip-rule="evenodd" d="M39.6113 31.7151C38.7387 31.1012 37.7318 30.7715 36.7146 30.7177C32.881 28.208 30.3698 26.3243 28.9036 24.8585L24.3999 20.356L27.1329 17.2977C27.6509 17.59 28.2072 17.7825 28.7636 17.862C29.1835 17.9319 29.4635 17.9319 29.7435 17.9319C30.3034 17.9319 30.4433 17.9319 31.0032 18.4217C30.7233 18.6316 30.5833 18.9814 30.5833 19.3312C30.5833 19.6809 30.7233 20.1008 31.0032 20.3806L33.4527 22.8294C33.8026 23.2492 34.3624 23.4591 34.9223 23.4591C35.4822 23.4591 36.0421 23.2492 36.392 22.7595L41.3609 17.792C41.7808 17.4421 41.9908 16.8825 41.9908 16.3227C41.9908 15.763 41.7808 15.2732 41.3609 14.8535L38.9114 12.4047C38.6315 12.1248 38.2816 11.9849 37.9316 11.9849C37.5817 11.9849 37.2318 12.1948 36.9518 12.4047C36.3919 11.9149 36.3919 11.775 36.3919 11.2152C36.3919 10.9354 36.3919 10.5856 36.2519 10.1658C36.1119 9.18623 35.6221 8.20678 34.8522 7.43714L32.3328 4.91841C30.8631 3.44915 30.1633 2.74953 28.2737 1.90995C24.2146 0.0209026 20.0855 0.370754 14.0668 3.09938C13.7169 3.23934 13.5769 3.51917 13.6469 3.86902C13.7169 4.21887 13.9969 4.42876 14.3467 4.42876H15.2565C18.3358 4.42876 19.9454 4.42876 22.7449 7.22733C23.9706 8.45275 24.006 10.3317 22.9077 11.7141C22.7597 11.7364 22.647 11.8029 22.5349 11.9149L19.4261 15.3838L17.0761 13.0344C14.4932 10.4522 12.6764 8.00918 11.2782 5.28884C11.2048 3.91231 10.6523 2.62441 9.65778 1.6302C8.4681 0.440855 6.78847 -0.11889 5.10884 0.0210666C4.89889 0.0910041 4.68894 0.230961 4.61898 0.370918C4.47898 0.580812 4.47898 0.860644 4.61898 1.07054L6.57852 4.5688C6.15861 5.47832 5.1788 6.03806 4.19907 5.96813L2.16949 2.60974C2.09954 2.39984 1.81954 2.25988 1.60959 2.25988C1.39964 2.18995 1.18968 2.32982 1.04969 2.53972C-0.629943 5.05845 -8.2016e-05 8.41676 2.51936 10.1658C3.38739 10.7857 4.36531 11.1304 5.3557 11.2011L5.36122 11.2035L5.36764 11.2065L5.36765 11.2065L5.36766 11.2065L5.36769 11.2065C5.37455 11.2097 5.3814 11.2129 5.38867 11.2153C8.11807 12.6146 10.5676 14.4337 13.157 17.0224L15.7165 19.523L0.839814 36.1229C0.279911 36.6826 0 37.4522 0 38.2218C0 38.9915 0.279911 39.6911 0.839814 40.2508L1.81962 41.2304C2.37953 41.7201 3.07935 42 3.77916 42C4.47898 42 5.24884 41.7202 5.80874 41.1604L20.6685 24.5318L24.9845 28.8466C26.4528 30.3145 28.3402 32.8998 30.8561 36.672C30.9463 38.0186 31.4975 39.2758 32.4728 40.2508C33.5226 41.3003 34.9223 41.86 36.392 41.86H36.9519C37.1619 41.86 37.3718 41.7201 37.5118 41.5102C37.6518 41.3003 37.6518 41.0205 37.5118 40.8106L35.4822 37.3823C35.9721 36.4728 36.882 35.9131 37.9317 35.983L39.8913 39.3413C39.9612 39.5512 40.2412 39.6912 40.4512 39.6912C40.7311 39.6212 40.941 39.5512 41.081 39.3413C42.7606 36.8225 42.0607 33.4642 39.6113 31.7151ZM23.6548 6.108C21.4153 3.93912 19.7356 3.23942 17.8461 3.02952C21.8352 1.77016 24.7745 1.8401 27.7139 3.16948C29.3935 3.8691 29.9534 4.42885 31.4231 5.89811L33.9425 8.41684C34.5024 8.97658 34.8523 9.6762 34.9223 10.3758C34.9923 10.7257 34.9923 11.0055 34.9923 11.2154C34.9923 11.985 35.0622 12.5447 35.9021 13.3843C36.182 13.6641 36.6019 13.8041 36.9518 13.8041C37.3717 13.8041 37.7217 13.6641 37.9316 13.3843L40.3811 15.8331C40.5211 15.973 40.5911 16.1129 40.5911 16.3228C40.5911 16.5327 40.5211 16.6726 40.3811 16.8125L35.4122 21.78C35.1323 22.0599 34.7124 22.0599 34.4324 21.78L31.9829 19.3313C32.2628 19.1214 32.4028 18.7715 32.3329 18.3517C32.3329 18.0019 32.1929 17.5821 31.9129 17.3022C31.0731 16.4627 30.5132 16.3927 29.7435 16.3927C29.5335 16.3927 29.2536 16.3927 28.9036 16.3228C28.1338 16.2529 27.5039 15.903 26.9441 15.3433L23.9348 12.3348C25.4743 10.4458 25.3344 7.78715 23.6548 6.108ZM3.1493 6.94758L1.67963 4.42885C1.18976 6.108 1.81963 7.99705 3.2893 9.04668C4.68894 10.0261 6.57852 10.0261 7.97824 9.11662C8.85922 8.52941 9.49228 7.64613 9.75628 6.63306C9.8287 6.32839 9.86782 6.01232 9.86782 5.68829C9.86782 5.62295 9.87545 5.56498 9.88898 5.51111C9.86167 4.44951 9.39969 3.4612 8.67814 2.67975C8.04827 2.05007 7.27842 1.63028 6.4386 1.49033L7.97832 4.14901C8.11831 4.35891 8.11831 4.5688 7.97832 4.7787L7.83832 5.12855C7.1385 6.52779 5.66883 7.36737 4.05916 7.29743H3.70921C3.49925 7.29743 3.2893 7.15747 3.1493 6.94758ZM14.1368 16.043C12.0373 13.8741 9.93777 12.1949 7.69824 10.8655C8.04819 10.7256 8.4681 10.5157 8.81797 10.3058C9.86774 9.60618 10.5676 8.69659 10.9875 7.57718C12.3171 9.81608 13.9968 11.915 16.0963 14.014L18.5001 16.4171L16.615 18.5205L14.1368 16.043ZM2.79935 40.1808C3.35926 40.7406 4.26903 40.6706 4.82893 40.1109L19.9151 23.2371C19.9494 23.1409 20.0056 23.0494 20.0856 22.9695L22.8849 19.8211C22.9576 19.7483 23.0306 19.695 23.1131 19.66L26.0012 16.4297L23.0618 13.4912L5.06046 33.6257L6.22849 34.7935C6.5084 35.0734 6.5084 35.4932 6.22849 35.773C6.08857 35.913 5.94858 35.9829 5.73862 35.9829C5.52867 35.9829 5.38875 35.913 5.24876 35.773L4.13551 34.6601L3.21065 35.6946L4.26895 36.7526C4.54886 37.0325 4.54886 37.4523 4.26895 37.7321C4.12903 37.8721 3.98904 37.942 3.77908 37.942C3.56913 37.942 3.42921 37.8721 3.28922 37.7321L2.28587 36.729L1.8895 37.1724C1.53963 37.5221 1.39964 37.872 1.39964 38.2918C1.39964 38.6416 1.53963 38.9915 1.81954 39.2713L2.79935 40.1808ZM21.626 23.4601L23.5413 21.3169L28.0637 25.8381C29.3235 27.1674 31.493 28.8465 34.6423 30.9455C34.2224 31.0854 33.8024 31.2953 33.3825 31.5751C32.5143 32.1177 31.8993 32.8709 31.4708 33.7036C31.4673 33.7102 31.4639 33.7169 31.4606 33.7236L31.4524 33.7396C31.427 33.7897 31.4022 33.84 31.3781 33.8907C31.3436 33.9624 31.3108 34.035 31.2794 34.1083C31.2579 34.1579 31.2365 34.2075 31.2162 34.2574L31.2077 34.2791C31.1856 34.3339 31.1638 34.3886 31.1431 34.4437C30.7456 33.8609 30.3631 33.3108 29.9953 32.7926L30.9331 31.8551C31.213 31.5752 31.213 31.1554 30.9331 30.8755C30.6532 30.5957 30.2333 30.5957 29.9533 30.8755L29.1731 31.6555C28.8823 31.261 28.6014 30.8888 28.3304 30.539L28.9736 29.896C29.2535 29.6162 29.2535 29.1964 28.9736 28.9165C28.6937 28.6366 28.2738 28.6366 27.9938 28.9165L27.4595 29.4505C26.9452 28.8308 26.4707 28.3033 26.0342 27.867L21.626 23.4601ZM38.9114 34.9334L40.381 37.4522C40.871 35.773 40.2411 33.884 38.7712 32.8346C38.0714 32.3448 37.2316 32.0649 36.3918 32.0649C35.5519 32.0649 34.7821 32.2748 34.0823 32.7646C33.643 33.0574 33.2661 33.4244 32.9647 33.8437C32.4742 34.5466 32.1927 35.3764 32.1927 36.2628C32.1927 36.3242 32.186 36.3791 32.174 36.4303C32.217 37.4688 32.6746 38.4346 33.3825 39.2013C34.0123 39.831 34.7822 40.2507 35.622 40.3907L34.0824 37.732C33.9424 37.5221 33.9424 37.3122 34.0824 37.1023L34.2224 36.7525C34.9222 35.3532 36.3918 34.4436 38.0015 34.5836H38.3515C38.5614 34.5836 38.7714 34.7236 38.9114 34.9334Z" fill="white"/>
</svg>
