<svg width="101" height="94" viewBox="0 0 101 94" fill="none" xmlns="http://www.w3.org/2000/svg">
<path fill-rule="evenodd" clip-rule="evenodd" d="M101 47C101 48.6291 99.6752 49.9498 98.041 49.9498H85.0215V66.0753H98.041C99.6752 66.0753 101 67.396 101 69.0251V91.0502C101 92.6793 99.6752 94 98.041 94H2.95898C1.32484 94 0 92.6793 0 91.0502V69.0251C0 67.396 1.32484 66.0753 2.95898 66.0753H15.9785V49.9498H2.95898C1.32484 49.9498 0 48.6291 0 47V24.9749C0 23.3458 1.32484 22.0251 2.95898 22.0251H15.9785V2.94979C15.9785 1.32072 17.3034 0 18.9375 0H50.5C52.1341 0 53.459 1.32072 53.459 2.94979V22.0251H98.041C99.6752 22.0251 101 23.3458 101 24.9749V47ZM69.2402 44.0502H95.082V27.9247H69.2402V44.0502ZM37.6777 44.0502V27.9247H63.3223V44.0502H37.6777ZM47.541 5.89958H21.8965V22.0251H47.541V5.89958ZM5.91797 44.0502V27.9247H31.7598V44.0502H5.91797ZM47.541 49.9498H21.8965V66.0753H47.541V49.9498ZM5.91797 71.9749H31.7598V88.1004H5.91797V71.9749ZM63.3223 88.1004V71.9749H37.6777V88.1004H63.3223ZM95.082 71.9749V88.1004H69.2402V71.9749H95.082ZM53.459 66.0753H79.1035V49.9498H53.459V66.0753Z" fill="white"/>
</svg>
