<svg width="82" height="94" viewBox="0 0 82 94" fill="none" xmlns="http://www.w3.org/2000/svg">
<path fill-rule="evenodd" clip-rule="evenodd" d="M70.417 33.5977C71.9401 33.5977 73.1749 32.3646 73.1749 30.8438V17.4414H79.2421C80.7652 17.4414 82 16.2084 82 14.6875V2.75391C82 1.23302 80.7652 0 79.2421 0H2.75785C1.23478 0 0 1.23302 0 2.75391V14.6875C0 16.2084 1.23478 17.4414 2.75785 17.4414H11.7668V88.4922H5.69955C4.17648 88.4922 2.9417 89.7252 2.9417 91.2461C2.9417 92.767 4.17648 94 5.69955 94H79.2421C80.7652 94 82 92.767 82 91.2461C82 91.2387 81.9998 91.2313 81.9995 91.224C81.999 91.2138 81.9983 91.2038 81.9976 91.1937C81.9967 91.1806 81.9958 91.1675 81.9954 91.1543C81.9958 91.1411 81.9967 91.128 81.9976 91.1149C81.9988 91.0975 82 91.0802 82 91.0625V79.3125C82 77.7916 80.7652 76.5586 79.2421 76.5586H49.8251C48.302 76.5586 47.0673 77.7916 47.0673 79.3125V88.4922H34.9327V17.4414H55.8924V30.8438C55.8924 32.3646 57.1272 33.5977 58.6502 33.5977H61.7758V40.2568L52.8018 53.0586H49.8251C48.302 53.0586 47.0673 54.2916 47.0673 55.8125V67.5625C47.0673 69.0834 48.302 70.3164 49.8251 70.3164H79.2421C80.7652 70.3164 82 69.0834 82 67.5625V55.8125C82 54.2916 80.7652 53.0586 79.2421 53.0586H76.2655L67.2915 40.2568V33.5977H70.417ZM76.4843 82.0664V88.3086H52.583V82.0664H76.4843ZM76.4843 64.8086V58.5664H74.8369L74.8322 58.5666L74.829 58.5664H52.583V64.8086H76.4843ZM59.5346 53.0586L64.5336 45.9273L69.5327 53.0586H59.5346ZM76.4843 5.50781H5.5157V11.9336H14.5247H32.1749H58.6502H70.417H76.4843V5.50781ZM17.2825 69.1443L29.417 62.076V71.8557L17.2825 78.924V69.1443ZM17.2825 62.7678L29.417 55.6994V45.9197L17.2825 52.9881V62.7678ZM17.2825 85.3006L29.417 78.2322V88.3086H17.2825V85.3006ZM17.2825 46.6115L29.417 39.5432V29.7635L17.2825 36.8318V46.6115ZM29.417 23.3869L17.2825 30.4553V17.4414H29.417V23.3869ZM67.6592 17.4414H61.4081V28.0898H67.6592V17.4414Z" fill="white"/>
</svg>
