<svg width="86" height="73" viewBox="0 0 86 73" fill="none" xmlns="http://www.w3.org/2000/svg">
<path fill-rule="evenodd" clip-rule="evenodd" d="M80.4515 45.2319L82.8485 45.8368C84.7032 46.3059 86 47.9877 86 49.9234V61.0798L76.0102 68.4346C71.9528 71.4222 67.1564 73 62.1392 73H23.8637C18.8465 73 14.0501 71.4219 9.99272 68.4346L0 61.0798V49.9234C0 47.9877 1.29683 46.3059 3.15118 45.8383L5.54821 45.2319V40.7116C5.54821 27.5181 12.4436 15.1993 23.5805 8.3389V5.61548C23.5805 4.06686 24.8249 2.80774 26.3548 2.80774H30.5159C31.5532 2.80774 32.4495 3.3944 32.9251 4.24934C34.0169 3.93478 35.0891 3.67653 36.1378 3.47577C36.483 1.50499 38.1794 0 40.2255 0H45.774C47.8197 0 49.5162 1.50469 49.8616 3.47577C50.9091 3.67506 51.9814 3.93478 53.0743 4.24934C53.55 3.3944 54.446 2.80774 55.4835 2.80774H59.6449C61.1751 2.80774 62.4192 4.06715 62.4192 5.61548V8.3389C73.5564 15.1996 80.4515 27.5184 80.4515 40.7116V45.2319ZM77.6775 40.7116C77.6775 29.0723 71.8864 18.1589 62.4195 11.659V26.1947C63.3018 28.5278 63.8066 31.049 63.8066 33.6926V55.3862C69.9624 55.8157 74.4471 56.4095 77.6775 56.9991V40.7116ZM55.4838 16.8461V5.61548H59.6452V21.1111C58.448 19.4926 57.0306 18.0578 55.4311 16.8461H55.4838ZM52.7096 7.0615C51.7635 6.77937 50.8369 6.54353 49.9353 6.35249V13.8645C50.8925 14.2082 51.8232 14.6071 52.7096 15.0829V7.0615ZM38.8386 4.21161C38.8386 3.43685 39.4614 2.80774 40.2258 2.80774H45.7743C46.5386 2.80774 47.1614 3.43656 47.1614 4.21161V13.0588C45.8159 12.7822 44.4247 12.6348 43 12.6348C41.5753 12.6348 40.1841 12.7822 38.8386 13.0588V4.21161ZM36.0647 6.35102C35.1631 6.54058 34.2365 6.77642 33.2904 7.06003V15.0814C34.1768 14.6056 35.1075 14.207 36.0647 13.863V6.35102ZM26.3548 5.61548H30.5162V16.8856C28.9391 18.0887 27.5395 19.5094 26.3548 21.1111V5.61548ZM43 15.4423C33.0571 15.4423 24.9677 23.6296 24.9677 33.6923V55.2131C29.9531 54.9298 35.894 54.75 43 54.75C50.106 54.75 56.0472 54.9295 61.0323 55.2131V33.6923C61.0323 23.6293 52.9429 15.4423 43 15.4423ZM8.32246 40.7113C8.32246 29.0723 14.1136 18.1589 23.5805 11.659V26.1944C22.6982 28.5275 22.1934 31.049 22.1934 33.6923V55.3871C16.0376 55.8166 11.5529 56.4092 8.32246 57V40.7113ZM3.82552 48.5605C3.20711 48.7177 2.77425 49.2778 2.77396 49.9222V58.3186C3.47713 58.094 4.38858 57.8384 5.54821 57.5689V48.1239L3.82552 48.5605ZM74.3761 66.1646C70.7961 68.7996 66.5639 70.1923 62.1378 70.1923H23.8622C19.4361 70.1923 15.2039 68.7996 11.6239 66.1646L4.30702 60.7794C8.37955 59.6128 18.9645 57.5574 43 57.5574C67.0344 57.5574 77.6193 59.614 81.6904 60.7806L74.3761 66.1646ZM80.4518 57.5704C81.6114 57.8399 82.5229 58.0955 83.226 58.3201V49.9237C83.226 49.2778 82.7932 48.7177 82.1745 48.5605L80.4518 48.1239V57.5704Z" fill="#F45905"/>
<rect x="28" y="36" width="2" height="16" fill="#F45905"/>
</svg>
