<svg width="76" height="94" viewBox="0 0 76 94" fill="none" xmlns="http://www.w3.org/2000/svg">
<path fill-rule="evenodd" clip-rule="evenodd" d="M75.7833 22.4326C75.9227 22.7649 75.9923 23.1055 75.9976 23.4585C76.0005 23.6446 75.9999 84.1133 75.9998 90.6765L75.9998 91.2461C75.9998 92.767 74.7669 94 73.2462 94H2.75362C1.23289 94 0 92.767 0 91.2461V2.75391C0 1.23302 1.23289 0 2.75362 0H52.6858C53.4251 0 54.1366 0.305684 54.6415 0.815156C59.9451 6.16683 63.9037 10.1539 66.8613 13.1328L66.8628 13.1343C75.2866 21.6187 75.5903 21.9246 75.7303 22.2926C75.7355 22.3064 75.7406 22.3203 75.7458 22.3347C75.7563 22.3639 75.7677 22.3954 75.7833 22.4326ZM66.6399 20.7461L55.4395 9.44443V20.7461H66.6399ZM17.2558 88.4922V73.2539H23.4973V76.375C23.4973 77.8959 24.7302 79.1289 26.2509 79.1289C27.7717 79.1289 29.0046 77.8959 29.0046 76.375V73.2539H35.2461V79.3125C35.2461 80.8334 36.479 82.0664 37.9997 82.0664C39.5204 82.0664 40.7533 80.8334 40.7533 79.3125V73.2539H46.9949V76.375C46.9949 77.8959 48.2277 79.1289 49.7485 79.1289C51.2692 79.1289 52.5021 77.8959 52.5021 76.375V73.2539H58.7436V88.4922H17.2558ZM64.251 60.2188V88.4922H70.4926V26.2539H52.6858C51.1651 26.2539 49.9322 25.0209 49.9322 23.5V5.50781H5.50723V88.4922H11.7488V70.5C11.7488 68.9791 12.9816 67.7461 14.5024 67.7461H58.7438V60.2188C58.7438 58.6979 59.9767 57.4648 61.4974 57.4648C63.0181 57.4648 64.251 58.6979 64.251 60.2188Z" fill="white"/>
<path fill-rule="evenodd" clip-rule="evenodd" d="M25.2527 33.6366L34.0147 40.9606C34.6389 41.4824 34.9998 42.2553 35 43.0704V56.2535C35 57.7703 33.7741 59 32.2619 59H14.7381C13.2259 59 12 57.7703 12 56.2535V43.0704C12 42.2555 12.3609 41.4824 12.9852 40.9606L21.7471 33.6366C22.7624 32.7878 24.2375 32.7878 25.2527 33.6366ZM17.476 44.3567V53.507H29.5236V44.3567L23.4998 39.3215L17.476 44.3567Z" fill="white"/>
</svg>
