<svg width="103" height="28" viewBox="0 0 103 28" fill="none" xmlns="http://www.w3.org/2000/svg">
<path d="M2.35499 25V3.104H11.535C14.8217 3.104 17.2923 3.954 18.947 5.654C20.6243 7.33133 21.463 10.1647 21.463 14.154C21.463 17.9167 20.6357 20.6707 18.981 22.416C17.349 24.1387 14.867 25 11.535 25H2.35499ZM6.94499 21.464H10.889C12.181 21.464 13.269 21.2713 14.153 20.886C15.037 20.478 15.6943 19.7527 16.125 18.71C16.5783 17.6447 16.805 16.126 16.805 14.154C16.805 12.182 16.601 10.6747 16.193 9.632C15.785 8.58933 15.1503 7.87533 14.289 7.49C13.4277 7.10467 12.2943 6.912 10.889 6.912H6.94499V21.464ZM30.6175 25.34C28.6908 25.34 27.1835 24.8073 26.0955 23.742C25.0302 22.654 24.4975 21.0673 24.4975 18.982V8.884H29.0875V18.88C29.0875 19.968 29.3482 20.7613 29.8695 21.26C30.3908 21.736 31.1728 21.974 32.2155 21.974C33.0088 21.974 33.7342 21.8153 34.3915 21.498C35.0715 21.1807 35.6495 20.784 36.1255 20.308V8.884H40.7155V25H36.4655L36.2955 23.47C35.6155 24.014 34.8108 24.4673 33.8815 24.83C32.9748 25.17 31.8868 25.34 30.6175 25.34ZM50.3006 25.34C49.0992 25.34 47.9546 25.2493 46.8666 25.068C45.7786 24.9093 44.9059 24.7053 44.2486 24.456V20.648C45.0419 20.9653 45.9372 21.2147 46.9346 21.396C47.9319 21.5547 48.8499 21.634 49.6886 21.634C50.8219 21.634 51.6152 21.566 52.0686 21.43C52.5446 21.294 52.7826 20.988 52.7826 20.512C52.7826 19.968 52.4199 19.5713 51.6946 19.322C50.9919 19.0727 49.9379 18.7213 48.5326 18.268C47.0592 17.7693 45.9259 17.1687 45.1326 16.466C44.3392 15.7633 43.9426 14.7207 43.9426 13.338C43.9426 11.7967 44.4979 10.618 45.6086 9.802C46.7419 8.96333 48.5552 8.544 51.0486 8.544C52.0459 8.544 52.9866 8.62333 53.8706 8.782C54.7546 8.918 55.5026 9.088 56.1146 9.292V13.066C55.5026 12.7713 54.7999 12.556 54.0066 12.42C53.2132 12.2613 52.4766 12.182 51.7966 12.182C50.8219 12.182 50.0399 12.25 49.4506 12.386C48.8839 12.522 48.6006 12.8167 48.6006 13.27C48.6006 13.7687 48.9066 14.12 49.5186 14.324C50.1532 14.528 51.1279 14.834 52.4426 15.242C53.7346 15.6273 54.7432 16.0467 55.4686 16.5C56.1939 16.9533 56.7039 17.4973 56.9986 18.132C57.2932 18.744 57.4406 19.5147 57.4406 20.444C57.4406 23.708 55.0606 25.34 50.3006 25.34ZM66.5204 25.34C64.6618 25.34 63.2791 24.8527 62.3724 23.878C61.4884 22.9033 61.0464 21.5773 61.0464 19.9V12.42H58.7684V8.884H61.0464V5.416L65.6364 4.056V8.884H69.7164L69.4444 12.42H65.6364V19.594C65.6364 20.478 65.8404 21.09 66.2484 21.43C66.6564 21.7473 67.2911 21.906 68.1524 21.906C68.7871 21.906 69.4444 21.7927 70.1244 21.566V24.728C69.6258 24.932 69.0818 25.0793 68.4924 25.17C67.9031 25.2833 67.2458 25.34 66.5204 25.34ZM72.48 25V8.884H76.73L76.934 10.55C77.6593 10.0967 78.5547 9.68867 79.62 9.326C80.708 8.94067 81.7733 8.68 82.816 8.544V12.012C82.204 12.1027 81.5353 12.2387 80.81 12.42C80.0847 12.6013 79.3933 12.8053 78.736 13.032C78.0787 13.2587 77.5233 13.4967 77.07 13.746V25H72.48ZM92.5575 25.34C89.5429 25.34 87.3329 24.6147 85.9275 23.164C84.5222 21.6907 83.8195 19.6167 83.8195 16.942C83.8195 14.2673 84.5222 12.2047 85.9275 10.754C87.3555 9.28067 89.5655 8.544 92.5575 8.544C95.5722 8.544 97.7822 9.28067 99.1875 10.754C100.616 12.2047 101.33 14.2673 101.33 16.942C101.33 19.6167 100.627 21.6907 99.2215 23.164C97.8162 24.6147 95.5949 25.34 92.5575 25.34ZM92.5575 21.43C94.0309 21.43 95.0849 21.1013 95.7195 20.444C96.3542 19.764 96.6715 18.5967 96.6715 16.942C96.6715 15.2873 96.3542 14.1313 95.7195 13.474C95.0849 12.794 94.0309 12.454 92.5575 12.454C91.1069 12.454 90.0642 12.794 89.4295 13.474C88.7949 14.1313 88.4775 15.2873 88.4775 16.942C88.4775 18.5967 88.7949 19.764 89.4295 20.444C90.0642 21.1013 91.1069 21.43 92.5575 21.43Z" fill="white"/>
<rect x="56" y="6.57143" width="32" height="3.21429" transform="rotate(-180 56 6.57143)" fill="white"/>
<rect x="92" y="3.35714" width="9" height="3.21429" fill="white"/>
</svg>
