<svg width="86" height="86" viewBox="0 0 86 86" fill="none" xmlns="http://www.w3.org/2000/svg">
<path fill-rule="evenodd" clip-rule="evenodd" d="M62.4187 0H65.193H86V34.6775V81.8386C86 84.1328 84.1328 86 81.8387 86C79.5445 86 77.6773 84.1328 77.6773 81.8386V73.5162C77.6773 72.7504 77.056 72.129 76.2902 72.129C75.5244 72.129 74.9031 72.7504 74.9031 73.5162V74.9033C74.9031 77.1975 73.0359 79.0647 70.7417 79.0647C68.4475 79.0647 66.5804 77.1975 66.5804 74.9033V64.5001C66.5804 64.1186 66.2684 63.8066 65.8868 63.8066C63.9739 63.8066 62.419 62.2517 62.419 60.3388V36.0647H49.9353H47.161H45.0317L40.1506 28.7437C37.995 25.5118 34.3886 23.5808 30.5049 23.5808C29.6852 23.5808 28.8597 23.6627 28.051 23.8235L26.7097 24.0912C20.1973 25.395 13.3782 25.2342 6.92562 23.6196L3.74212 22.8246C1.2149 22.1937 -0.391553 19.6831 0.0829565 17.1113C0.431046 15.229 1.93905 13.6906 3.92214 13.194L6.92387 12.4436C13.3765 10.8319 20.1956 10.6697 26.7079 11.9735L28.0507 12.2412C28.8582 12.402 29.6849 12.4838 30.5046 12.4838C34.3883 12.4838 37.9962 10.5529 40.1503 7.321L45.0314 0H47.1607H49.935H62.4187ZM46.5158 33.2904H47.1607V2.77425H46.5158L42.4585 8.86047C39.7871 12.8651 35.3193 15.2578 30.5046 15.2578C29.5043 15.2578 28.4958 15.1579 27.5084 14.9624L26.1644 14.6947C20.0514 13.4713 13.6541 13.6239 7.59675 15.1357L4.59647 15.8861C3.6795 16.1151 2.96118 16.8112 2.81262 17.6172C2.60027 18.7518 3.3049 19.8576 4.41325 20.1349L7.59675 20.9298C13.6529 22.4416 20.0514 22.5957 26.1644 21.3708L27.5072 21.1031C28.4961 20.9062 29.5031 20.8063 30.5046 20.8063C35.319 20.8063 39.7882 23.199 42.4585 27.2036L46.5158 33.2904ZM62.4187 33.2904H49.935V2.77425H62.4187V33.2904ZM80.451 81.8386C80.451 82.6044 81.0723 83.2258 81.8381 83.2258C82.6039 83.2258 83.2252 82.6044 83.2252 81.8386H83.2249V34.6775V2.77425H65.1927V34.6775V36.0647V60.3388C65.1927 60.7204 65.5046 61.0323 65.8862 61.0323C67.7991 61.0323 69.354 62.5872 69.354 64.5001V74.9033C69.354 75.6691 69.9753 76.2904 70.7411 76.2904C71.5069 76.2904 72.1283 75.6691 72.1283 74.9033V73.5162C72.1283 71.222 73.9954 69.3548 76.2896 69.3548C78.5838 69.3548 80.451 71.222 80.451 73.5162V81.8386Z" fill="#F45905"/>
<circle cx="9" cy="19" r="1" fill="#F45905"/>
<rect x="76" y="6" width="2" height="49" fill="#F45905"/>
<rect x="76" y="59" width="2" height="2" fill="#F45905"/>
<rect x="70" y="8" width="2" height="41" fill="#F45905"/>
<rect x="70" y="51" width="2" height="2" fill="#F45905"/>
</svg>
