<svg width="72" height="86" viewBox="0 0 72 86" fill="none" xmlns="http://www.w3.org/2000/svg">
<path fill-rule="evenodd" clip-rule="evenodd" d="M40.7499 9.70962L39.1163 0H33.8832L32.2698 9.48212L32.2513 40.2259H28V46.6314L30.8334 48.0185V50.4654L28 51.8525V77.6775C28 82.2674 31.8122 86 36.5 86C41.1878 86 45 82.2674 45 77.6775V51.8528L42.1666 50.4657V48.0188L45 46.6317V40.2262H40.7499V9.70962ZM35.083 9.82497L36.2831 2.77426H36.7166L37.9164 9.82497V40.2262H35.083V9.82497ZM42.1666 44.9171V43.0001H40.7496H32.2496H30.8328V44.9171L33.6663 46.3043V52.1799L30.8328 53.567V77.6775C30.8328 80.7375 33.3744 83.226 36.4997 83.226C39.625 83.226 42.1666 80.7375 42.1666 77.6775V53.567L39.3331 52.1799V46.3043L42.1666 44.9171Z" fill="#F45905"/>
<rect x="35" y="55" width="3" height="24" fill="#F45905"/>
<path fill-rule="evenodd" clip-rule="evenodd" d="M12.7501 11.6711L14.2674 10.1856L12.5333 0H4.46673L2.73258 10.1856L4.24985 11.6711V40.226H0V46.6315L2.83343 48.0186V50.4655L0 51.8526V77.6775C0 82.2674 3.81222 86 8.5 86C13.1878 86 17 82.2674 17 77.6775V51.8526L14.1666 50.4655V48.0186L17 46.6315V40.226H12.7501V11.6711ZM6.8667 2.77425H10.1333L11.2332 9.23391L9.91701 10.5226V40.2257H7.08358V10.5226L5.76742 9.23391L6.8667 2.77425ZM14.1672 44.917V43H12.7501H4.25015H2.83343V44.917L5.66686 46.3041V52.1797L2.83343 53.5669V77.6772C2.83343 80.7373 5.37501 83.2258 8.5003 83.2258C11.6256 83.2258 14.1672 80.7373 14.1672 77.6772V53.5669L11.3337 52.1797V46.3041L14.1672 44.917Z" fill="#F45905"/>
<rect x="7" y="55" width="3" height="24" fill="#F45905"/>
<path fill-rule="evenodd" clip-rule="evenodd" d="M72 46.6317V40.2262H67.7499V18.0327H69.1666V0H57.8334V18.0324H59.2501V40.2259H55V46.6314L57.8334 48.0185V50.4654L55 51.8525V77.6775C55 82.2674 58.8122 86 63.4999 86C68.1875 86 71.9997 82.2674 71.9997 77.6775V51.8528L69.1663 50.4657V48.0188L72 46.6317ZM60.6668 2.77426H66.3335V15.2581H64.9168V40.2259H62.0835V15.2581H60.6668V2.77426ZM69.1669 77.6775V53.567L66.3332 52.1799V46.3043L69.1666 44.9171V43.0001H67.7499H59.2501H57.8334V44.9171L60.6668 46.3043V52.1799L57.8334 53.567V77.6775C57.8334 80.7375 60.3749 83.226 63.5001 83.226C66.6254 83.226 69.1669 80.7375 69.1669 77.6775Z" fill="#F45905"/>
<rect x="62" y="55" width="3" height="24" fill="#F45905"/>
</svg>
