<svg width="26" height="26" viewBox="0 0 26 26" fill="none" xmlns="http://www.w3.org/2000/svg">
<path d="M25.6445 22.7461C25.8815 22.9831 26 23.2708 26 23.6094C26 23.9479 25.8815 24.2357 25.6445 24.4727L24.2227 25.8945C23.9857 26.1315 23.6979 26.25 23.3594 26.25C23.0208 26.25 22.7331 26.1315 22.4961 25.8945L17.418 20.8164C17.181 20.5794 17.0625 20.2917 17.0625 19.9531V19.1406C15.1667 20.6302 13 21.375 10.5625 21.375C7.65104 21.375 5.16276 20.3424 3.09766 18.2773C1.03255 16.2122 0 13.724 0 10.8125C0 7.90104 1.03255 5.41276 3.09766 3.34766C5.16276 1.28255 7.65104 0.25 10.5625 0.25C13.474 0.25 15.9622 1.28255 18.0273 3.34766C20.0924 5.41276 21.125 7.90104 21.125 10.8125C21.125 13.25 20.3802 15.4167 18.8906 17.3125H19.7031C20.0417 17.3125 20.3294 17.431 20.5664 17.668L25.6445 22.7461ZM5.94141 15.4336C7.22786 16.6862 8.76823 17.3125 10.5625 17.3125C12.3568 17.3125 13.8802 16.6862 15.1328 15.4336C16.4193 14.1471 17.0625 12.6068 17.0625 10.8125C17.0625 9.01823 16.4193 7.49479 15.1328 6.24219C13.8802 4.95573 12.3568 4.3125 10.5625 4.3125C8.76823 4.3125 7.22786 4.95573 5.94141 6.24219C4.6888 7.49479 4.0625 9.01823 4.0625 10.8125C4.0625 12.6068 4.6888 14.1471 5.94141 15.4336Z" fill="white"/>
</svg>
